#!OML:ASF F:\VICON\USERDATA\INSTALL\rory3\rory3.ASF
:FULLY-SPECIFIED
:DEGREES
2333
root 0.0247822 15.5416 -1.41475 9.48703 9.21995 2.00511
lowerback 28.0536 3.62843 -0.264739
upperback 8.51161 4.234 -4.71359
thorax -5.54206 2.13671 -6.43047
lowerneck -3.0082 -14.8488 -18.7362
upperneck -0.920557 -20.3409 25.7835
head 5.06688 -9.94042 9.33454
rclavicle 4.17448e-014 7.35503e-015
rhumerus 100.409 -19.1233 -84.48
rradius 14.3616
rwrist 49.1785
rhand 0.559196 9.66405
rfingers 7.12502
rthumb 26.1259 -18.5586
lclavicle 4.17448e-014 7.35503e-015
lhumerus 2.44665 -21.63 54.2789
lradius 127.848
lwrist 7.74709
lhand -6.83455 21.9432
lfingers 7.12502
lthumb 19.0299 51.0323
rfemur -30.9933 0.174558 14.2129
rtibia 45.1257
rfoot -17.5731 -12.9379
rtoes -17.1978
lfemur -31.8615 -12.9287 -14.9366
ltibia 37.7884
lfoot -10.7497 2.13622
ltoes -14.9386
2334
root 0.0187263 15.5621 -1.40677 9.7646 9.00606 2.17605
lowerback 28.0511 3.87991 -0.34083
upperback 8.45032 4.52189 -4.8072
thorax -5.5755 2.27489 -6.58533
lowerneck -2.67949 -14.9468 -19.033
upperneck -1.13091 -20.5133 26.1773
head 5.07608 -10.0523 9.50203
rclavicle 6.2816e-014 -9.12422e-014
rhumerus 103.434 -16.2509 -94.6141
rradius 13.8393
rwrist 54.8362
rhand 3.94018 8.7296
rfingers 7.12502
rthumb 29.3586 -18.9719
lclavicle 6.2816e-014 -9.12422e-014
lhumerus 2.49067 -22.0469 54.6266
lradius 127.833
lwrist 7.54038
lhand -6.73444 22.1004
lfingers 7.12502
lthumb 19.1262 51.1799
rfemur -31.1408 0.732371 13.9629
rtibia 44.903
rfoot -17.4864 -13.2067
rtoes -16.7484
lfemur -31.735 -12.7242 -15.0776
ltibia 37.2181
lfoot -10.5335 2.17238
ltoes -14.6515
2335
root 0.0103773 15.5769 -1.39635 10.0641 8.92413 2.4811
lowerback 28.003 4.06712 -0.66166
upperback 8.39438 4.66692 -4.88483
thorax -5.61776 2.3428 -6.53278
lowerneck -2.40398 -14.9848 -19.4633
upperneck -1.22152 -20.6245 26.6876
head 5.14903 -10.1263 9.73609
rclavicle -1.49089e-014 6.10269e-014
rhumerus 103.61 -15.6743 -96.4357
rradius 13.3775
rwrist 54.0245
rhand 7.16667 7.73619
rfingers 7.12502
rthumb 32.4343 -19.3817
lclavicle -1.49089e-014 6.10269e-014
lhumerus 2.37414 -22.2829 55.0593
lradius 127.881
lwrist 7.35887
lhand -6.54654 22.0872
lfingers 7.12502
lthumb 19.3069 51.1488
rfemur -31.2365 1.1713 13.5889
rtibia 44.704
rfoot -17.3973 -13.4567
rtoes -16.0621
lfemur -31.651 -12.6361 -15.3459
ltibia 36.7019
lfoot -10.3819 2.16916
ltoes -14.4834
2336
root 0.00291023 15.5899 -1.38597 10.3204 9.01873 2.57977
lowerback 27.9222 4.13285 -0.818096
upperback 8.37854 4.7114 -4.89145
thorax -5.60435 2.36412 -6.4578
lowerneck -2.53772 -14.9582 -19.2349
upperneck -1.13428 -20.5798 26.6075
head 5.15061 -10.0921 9.67334
rclavicle -6.75868e-014 -1.78906e-015
rhumerus 101.728 -16.9112 -91.9593
rradius 13.2509
rwrist 49.2567
rhand 10.0512 7.34999
rfingers 7.12502
rthumb 35.1749 -19.165
lclavicle -6.75868e-014 -1.78906e-015
lhumerus 2.21589 -22.0635 55.5173
lradius 127.907
lwrist 6.94566
lhand -5.61207 21.5304
lfingers 7.12502
lthumb 20.2052 50.4996
rfemur -31.2253 1.51746 13.4572
rtibia 44.4891
rfoot -17.4287 -13.5601
rtoes -14.8665
lfemur -31.6495 -12.5764 -15.3883
ltibia 36.2606
lfoot -10.1851 2.06751
ltoes -14.2393
2337
root -0.00229475 15.603 -1.37474 10.5468 9.25665 2.64974
lowerback 27.8009 4.11586 -0.977121
upperback 8.37168 4.6566 -4.86019
thorax -5.57565 2.33765 -6.30365
lowerneck -2.71057 -14.8638 -18.8752
upperneck -0.939029 -20.4435 26.3729
head 5.13319 -10.0073 9.5542
rclavicle -1.50082e-014 -1.11319e-014
rhumerus 97.5286 -18.9229 -82.2133
rradius 14.07
rwrist 41.2395
rhand 12.6443 7.39654
rfingers 7.12502
rthumb 37.6299 -18.5024
lclavicle -1.50082e-014 -1.11319e-014
lhumerus 1.93962 -21.7285 55.9892
lradius 128.069
lwrist 7.201
lhand -4.72904 21.0865
lfingers 7.12502
lthumb 21.0537 49.9636
rfemur -31.208 1.80564 13.3429
rtibia 44.2786
rfoot -17.4568 -13.8914
rtoes -14.3844
lfemur -31.6881 -12.5411 -15.4277
ltibia 35.9023
lfoot -10.0014 1.91194
ltoes -14.3023
2338
root -0.00496191 15.6161 -1.36255 10.6975 9.57016 2.63828
lowerback 27.6512 4.00109 -1.08738
upperback 8.35784 4.49236 -4.8281
thorax -5.54756 2.25831 -6.14092
lowerneck -2.65091 -14.7289 -18.7337
upperneck -0.733926 -20.3005 26.36
head 5.13337 -9.93438 9.561
rclavicle -2.04748e-014 -6.16232e-015
rhumerus 91.7287 -20.3415 -69.4105
rradius 15.5197
rwrist 31.3475
rhand 14.1108 8.03786
rfingers 7.12502
rthumb 39.014 -17.4782
lclavicle -2.04748e-014 -6.16232e-015
lhumerus 1.3923 -21.6767 56.5296
lradius 128.491
lwrist 8.54993
lhand -5.25076 21.5502
lfingers 7.12502
lthumb 20.5525 50.4823
rfemur -31.1752 2.08264 13.3071
rtibia 44.0432
rfoot -17.3715 -14.4903
rtoes -15.1557
lfemur -31.7193 -12.6298 -15.374
ltibia 35.6492
lfoot -9.8671 1.82322
ltoes -14.1179
2339
root -0.00922628 15.6239 -1.35116 10.7433 9.86764 2.59047
lowerback 27.5102 3.85875 -1.22717
upperback 8.41996 4.28892 -4.79582
thorax -5.44323 2.16268 -5.94547
lowerneck -2.66387 -14.597 -18.6012
upperneck -0.513725 -20.1552 26.3485
head 5.15126 -9.85479 9.56401
rclavicle -2.52457e-014 -4.17448e-015
rhumerus 82.1339 -20.7312 -50.8028
rradius 21.0262
rwrist 16.3656
rhand 15.1868 6.62692
rfingers 7.12502
rthumb 40.0274 -18.5909
lclavicle -2.52457e-014 -4.17448e-015
lhumerus 0.819374 -21.3976 57.1892
lradius 128.643
lwrist 8.93219
lhand -5.67793 21.8452
lfingers 7.12502
lthumb 20.1419 50.821
rfemur -31.0348 2.33083 13.3433
rtibia 43.8283
rfoot -17.3029 -14.9404
rtoes -15.3561
lfemur -31.7164 -12.7917 -15.2651
ltibia 35.4957
lfoot -9.76778 1.76921
ltoes -13.828
2340
root -0.015077 15.6303 -1.34132 10.6846 10.204 2.42168
lowerback 27.4057 3.73297 -1.23875
upperback 8.57574 4.14901 -4.68913
thorax -5.24201 2.10063 -5.75803
lowerneck -2.79032 -14.496 -18.5255
upperneck -0.391704 -20.0218 26.3681
head 5.17334 -9.7763 9.57507
rclavicle 1.66979e-014 2.32578e-014
rhumerus 76.0705 -19.436 -39.5243
rradius 25.4666
rwrist 8.14881
rhand 14.7661 5.89937
rfingers 7.12502
rthumb 39.6314 -19.4368
lclavicle 1.66979e-014 2.32578e-014
lhumerus 0.430596 -20.8537 57.8746
lradius 128.515
lwrist 8.64387
lhand -5.52362 21.4192
lfingers 7.12502
lthumb 20.2902 50.3794
rfemur -30.8033 2.47915 13.5604
rtibia 43.6492
rfoot -17.2947 -15.2579
rtoes -15.2402
lfemur -31.6942 -12.9764 -15.033
ltibia 35.4525
lfoot -9.68749 1.69202
ltoes -13.3531
2341
root -0.0226431 15.6354 -1.33262 10.5429 10.6025 2.18251
lowerback 27.3633 3.61827 -1.13501
upperback 8.76438 4.0546 -4.54727
thorax -5.02445 2.06163 -5.61565
lowerneck -2.94805 -14.4302 -18.4853
upperneck -0.282403 -19.9349 26.4378
head 5.21861 -9.71809 9.59708
rclavicle 6.38099e-014 -6.44062e-014
rhumerus 71.1487 -17.582 -30.7477
rradius 29.7632
rwrist 1.98894
rhand 13.7318 5.79695
rfingers 7.12502
rthumb 38.6566 -19.8206
lclavicle 6.38099e-014 -6.44062e-014
lhumerus 0.277693 -20.3918 58.3069
lradius 128.764
lwrist 9.32451
lhand -5.06246 21.7224
lfingers 7.12502
lthumb 20.7334 50.6348
rfemur -30.5248 2.56053 13.8912
rtibia 43.5206
rfoot -17.2729 -15.6447
rtoes -15.3044
lfemur -31.6682 -13.1615 -14.7442
ltibia 35.5091
lfoot -9.60157 1.55783
ltoes -13.0402
2342
root -0.0292094 15.6374 -1.32617 10.3938 10.9782 1.97526
lowerback 27.3605 3.50726 -1.05718
upperback 8.97256 3.95588 -4.41872
thorax -4.80476 2.02078 -5.47502
lowerneck -3.19413 -14.4198 -18.4483
upperneck -0.177798 -19.9146 26.5103
head 5.29379 -9.68616 9.60102
rclavicle 1.98785e-016 2.18663e-015
rhumerus 67.2801 -15.5446 -24.0097
rradius 33.7957
rwrist -2.58786
rhand 12.8089 6.17993
rfingers 7.12502
rthumb 37.7853 -19.6774
lclavicle 1.98785e-016 2.18663e-015
lhumerus 0.309476 -20.0447 58.4791
lradius 129.101
lwrist 9.86164
lhand -4.65256 22.2957
lfingers 7.12502
lthumb 21.1272 51.1646
rfemur -30.2644 2.55389 14.1885
rtibia 43.4328
rfoot -17.2934 -15.9408
rtoes -14.9261
lfemur -31.6726 -13.4102 -14.4878
ltibia 35.6393
lfoot -9.56626 1.58586
ltoes -13.11
